<mxfile host="65bd71144e">
    <diagram id="v7DR3OZrTKcgggxZ--NC" name="Page-1">
        <mxGraphModel dx="1769" dy="667" grid="1" gridSize="10" guides="1" tooltips="1" connect="1" arrows="1" fold="1" page="1" pageScale="1" pageWidth="850" pageHeight="1100" math="0" shadow="0">
            <root>
                <mxCell id="0"/>
                <mxCell id="1" parent="0"/>
                <mxCell id="102" style="edgeStyle=none;html=1;exitX=1;exitY=0.5;exitDx=0;exitDy=0;entryX=0;entryY=0.5;entryDx=0;entryDy=0;strokeWidth=3;fontSize=24;" parent="1" source="103" target="109" edge="1">
                    <mxGeometry relative="1" as="geometry"/>
                </mxCell>
                <mxCell id="103" value="&lt;font style=&quot;font-size: 24px;&quot;&gt;INÍCIO&lt;/font&gt;" style="rounded=1;whiteSpace=wrap;html=1;arcSize=50;strokeWidth=3;fontSize=24;" parent="1" vertex="1">
                    <mxGeometry x="-510" y="675" width="90" height="60" as="geometry"/>
                </mxCell>
                <mxCell id="104" style="edgeStyle=none;html=1;exitX=1;exitY=0.5;exitDx=0;exitDy=0;entryX=0;entryY=0.5;entryDx=0;entryDy=0;strokeWidth=3;fontSize=24;" parent="1" source="105" target="107" edge="1">
                    <mxGeometry relative="1" as="geometry"/>
                </mxCell>
                <mxCell id="105" value="&lt;font style=&quot;font-size: 24px;&quot;&gt;Seleciona uma das barras filtradas&lt;/font&gt;" style="rounded=0;whiteSpace=wrap;html=1;strokeWidth=3;fontSize=24;" parent="1" vertex="1">
                    <mxGeometry x="-90" y="640" width="214.37" height="130" as="geometry"/>
                </mxCell>
                <mxCell id="117" value="" style="edgeStyle=none;html=1;strokeWidth=3;fontSize=24;" parent="1" source="107" target="116" edge="1">
                    <mxGeometry relative="1" as="geometry"/>
                </mxCell>
                <mxCell id="107" value="&lt;span style=&quot;font-size: 24px;&quot;&gt;Seleciona a&lt;br style=&quot;font-size: 24px;&quot;&gt;potência instalada do&amp;nbsp;primeiro ano de análise&lt;/span&gt;" style="rounded=0;whiteSpace=wrap;html=1;strokeWidth=3;fontSize=24;" parent="1" vertex="1">
                    <mxGeometry x="161.87" y="640" width="213.75" height="130" as="geometry"/>
                </mxCell>
                <mxCell id="183" value="" style="edgeStyle=none;html=1;strokeWidth=3;fontSize=24;" parent="1" source="109" target="105" edge="1">
                    <mxGeometry relative="1" as="geometry"/>
                </mxCell>
                <mxCell id="109" value="&lt;font style=&quot;font-size: 24px;&quot;&gt;Filtra as barras do nível de tensão especificado pelo usuário&lt;/font&gt;" style="rounded=0;whiteSpace=wrap;html=1;strokeWidth=3;fontSize=24;" parent="1" vertex="1">
                    <mxGeometry x="-350" y="640" width="220" height="130" as="geometry"/>
                </mxCell>
                <mxCell id="147" style="edgeStyle=none;html=1;exitX=0;exitY=0.5;exitDx=0;exitDy=0;entryX=0.5;entryY=1;entryDx=0;entryDy=0;strokeWidth=3;fontSize=24;" parent="1" source="112" target="146" edge="1">
                    <mxGeometry relative="1" as="geometry">
                        <Array as="points">
                            <mxPoint x="17" y="1620"/>
                        </Array>
                    </mxGeometry>
                </mxCell>
                <mxCell id="178" style="edgeStyle=none;html=1;exitX=0.5;exitY=0;exitDx=0;exitDy=0;entryX=0.5;entryY=1;entryDx=0;entryDy=0;strokeWidth=3;fontSize=24;" parent="1" source="112" target="176" edge="1">
                    <mxGeometry relative="1" as="geometry"/>
                </mxCell>
                <mxCell id="112" value="&lt;font style=&quot;font-size: 24px;&quot;&gt;Todos os&lt;br style=&quot;font-size: 24px;&quot;&gt;anos&lt;br style=&quot;font-size: 24px;&quot;&gt;analisados?&lt;/font&gt;" style="rhombus;whiteSpace=wrap;html=1;strokeWidth=3;fontSize=24;" parent="1" vertex="1">
                    <mxGeometry x="130" y="1530" width="280" height="180" as="geometry"/>
                </mxCell>
                <mxCell id="115" value="&lt;font style=&quot;font-size: 24px;&quot;&gt;NÃO&lt;/font&gt;" style="text;strokeColor=none;align=center;fillColor=none;html=1;verticalAlign=middle;whiteSpace=wrap;rounded=0;fontStyle=1;fontSize=24;" parent="1" vertex="1">
                    <mxGeometry x="820" y="1420" width="60" height="30" as="geometry"/>
                </mxCell>
                <mxCell id="119" value="" style="edgeStyle=none;html=1;strokeWidth=3;fontSize=24;exitX=1;exitY=0.5;exitDx=0;exitDy=0;" parent="1" source="116" target="118" edge="1">
                    <mxGeometry relative="1" as="geometry">
                        <Array as="points"/>
                    </mxGeometry>
                </mxCell>
                <mxCell id="116" value="&lt;font style=&quot;font-size: 24px;&quot;&gt;Calcula o valor de potência dos N postos que serão conectados em cada barra&lt;/font&gt;" style="rounded=0;whiteSpace=wrap;html=1;strokeWidth=3;fontSize=24;" parent="1" vertex="1">
                    <mxGeometry x="410" y="640" width="270" height="130" as="geometry"/>
                </mxCell>
                <mxCell id="170" value="" style="edgeStyle=none;html=1;strokeWidth=3;fontSize=24;" parent="1" source="118" target="168" edge="1">
                    <mxGeometry relative="1" as="geometry"/>
                </mxCell>
                <mxCell id="118" value="&lt;font style=&quot;font-size: 24px;&quot;&gt;Calcula a potência&lt;br style=&quot;font-size: 24px;&quot;&gt;total após a conexão dos&amp;nbsp;N postos&amp;nbsp;&lt;/font&gt;" style="rounded=0;whiteSpace=wrap;html=1;strokeWidth=3;fontSize=24;" parent="1" vertex="1">
                    <mxGeometry x="708.75" y="640" width="210" height="130" as="geometry"/>
                </mxCell>
                <mxCell id="149" style="edgeStyle=none;html=1;exitX=0;exitY=0.5;exitDx=0;exitDy=0;entryX=0.5;entryY=1;entryDx=0;entryDy=0;strokeWidth=3;fontSize=24;" parent="1" source="123" target="116" edge="1">
                    <mxGeometry relative="1" as="geometry">
                        <Array as="points">
                            <mxPoint x="545" y="910"/>
                        </Array>
                    </mxGeometry>
                </mxCell>
                <mxCell id="186" value="" style="edgeStyle=none;html=1;strokeWidth=3;fontSize=24;" parent="1" source="123" target="141" edge="1">
                    <mxGeometry relative="1" as="geometry"/>
                </mxCell>
                <mxCell id="123" value="&lt;font style=&quot;font-size: 24px;&quot;&gt;200 iterações?&lt;/font&gt;" style="rhombus;whiteSpace=wrap;html=1;strokeWidth=3;fontSize=24;" parent="1" vertex="1">
                    <mxGeometry x="960" y="840" width="250" height="140" as="geometry"/>
                </mxCell>
                <mxCell id="154" style="edgeStyle=none;html=1;exitX=0;exitY=0.5;exitDx=0;exitDy=0;entryX=1;entryY=0.5;entryDx=0;entryDy=0;strokeWidth=3;fontSize=24;" parent="1" source="136" target="152" edge="1">
                    <mxGeometry relative="1" as="geometry"/>
                </mxCell>
                <mxCell id="189" style="edgeStyle=none;html=1;exitX=0.5;exitY=1;exitDx=0;exitDy=0;entryX=1;entryY=0.5;entryDx=0;entryDy=0;strokeWidth=3;fontSize=24;" parent="1" source="136" target="112" edge="1">
                    <mxGeometry relative="1" as="geometry">
                        <Array as="points">
                            <mxPoint x="1080" y="1620"/>
                        </Array>
                    </mxGeometry>
                </mxCell>
                <mxCell id="136" value="&lt;font style=&quot;font-size: 24px;&quot;&gt;N &amp;lt;= 10?&lt;/font&gt;" style="rhombus;whiteSpace=wrap;html=1;strokeWidth=3;fontSize=24;" parent="1" vertex="1">
                    <mxGeometry x="960" y="1390" width="240" height="140" as="geometry"/>
                </mxCell>
                <mxCell id="175" value="" style="edgeStyle=none;html=1;strokeWidth=3;fontSize=24;" parent="1" source="141" target="173" edge="1">
                    <mxGeometry relative="1" as="geometry"/>
                </mxCell>
                <mxCell id="141" value="&lt;font style=&quot;font-size: 24px;&quot;&gt;Determina o valor&lt;br style=&quot;font-size: 24px;&quot;&gt;da margem a partir&lt;br style=&quot;font-size: 24px;&quot;&gt;da potência limite da barra selecionada&lt;br style=&quot;font-size: 24px;&quot;&gt;&lt;/font&gt;" style="rounded=0;whiteSpace=wrap;html=1;strokeWidth=3;fontSize=24;" parent="1" vertex="1">
                    <mxGeometry x="960" y="1030" width="250" height="150" as="geometry"/>
                </mxCell>
                <mxCell id="166" style="edgeStyle=none;html=1;exitX=0;exitY=0.5;exitDx=0;exitDy=0;entryX=1;entryY=0.5;entryDx=0;entryDy=0;strokeWidth=3;fontSize=24;" parent="1" source="146" target="165" edge="1">
                    <mxGeometry relative="1" as="geometry"/>
                </mxCell>
                <mxCell id="180" style="edgeStyle=none;html=1;exitX=0.5;exitY=0;exitDx=0;exitDy=0;entryX=0.5;entryY=1;entryDx=0;entryDy=0;strokeWidth=3;fontSize=24;" parent="1" source="146" target="105" edge="1">
                    <mxGeometry relative="1" as="geometry"/>
                </mxCell>
                <mxCell id="146" value="&lt;span style=&quot;font-size: 24px;&quot;&gt;Todas as barras&lt;br style=&quot;font-size: 24px;&quot;&gt;consideradas?&lt;/span&gt;" style="rhombus;whiteSpace=wrap;html=1;strokeWidth=3;fontSize=24;" parent="1" vertex="1">
                    <mxGeometry x="-112.81" y="1210" width="260" height="180" as="geometry"/>
                </mxCell>
                <mxCell id="153" value="" style="edgeStyle=none;html=1;strokeWidth=3;fontSize=24;" parent="1" source="152" target="116" edge="1">
                    <mxGeometry relative="1" as="geometry"/>
                </mxCell>
                <mxCell id="152" value="&lt;font style=&quot;font-size: 24px;&quot;&gt;Incrementa N em um&lt;/font&gt;" style="rounded=0;whiteSpace=wrap;html=1;strokeWidth=3;fontSize=24;" parent="1" vertex="1">
                    <mxGeometry x="440" y="1400" width="210" height="120" as="geometry"/>
                </mxCell>
                <mxCell id="160" value="&lt;font style=&quot;font-size: 24px;&quot;&gt;NÃO&lt;/font&gt;" style="text;strokeColor=none;align=center;fillColor=none;html=1;verticalAlign=middle;whiteSpace=wrap;rounded=0;fontStyle=1;fontSize=24;" parent="1" vertex="1">
                    <mxGeometry x="280" y="1290" width="60" height="30" as="geometry"/>
                </mxCell>
                <mxCell id="161" value="&lt;font style=&quot;font-size: 24px;&quot;&gt;NÃO&lt;/font&gt;" style="text;strokeColor=none;align=center;fillColor=none;html=1;verticalAlign=middle;whiteSpace=wrap;rounded=0;fontStyle=1;fontSize=24;" parent="1" vertex="1">
                    <mxGeometry x="20" y="900" width="60" height="30" as="geometry"/>
                </mxCell>
                <mxCell id="165" value="&lt;font style=&quot;font-size: 24px;&quot;&gt;FIM&lt;/font&gt;" style="rounded=1;whiteSpace=wrap;html=1;arcSize=50;strokeWidth=3;fontSize=24;" parent="1" vertex="1">
                    <mxGeometry x="-300" y="1270" width="90" height="60" as="geometry"/>
                </mxCell>
                <mxCell id="167" value="&lt;font style=&quot;font-size: 24px;&quot;&gt;SIM&lt;/font&gt;" style="text;strokeColor=none;align=center;fillColor=none;html=1;verticalAlign=middle;whiteSpace=wrap;rounded=0;fontStyle=1;fontSize=24;" parent="1" vertex="1">
                    <mxGeometry x="-190" y="1260" width="60" height="30" as="geometry"/>
                </mxCell>
                <mxCell id="171" value="" style="edgeStyle=none;html=1;strokeWidth=3;fontSize=24;" parent="1" source="168" target="123" edge="1">
                    <mxGeometry relative="1" as="geometry"/>
                </mxCell>
                <mxCell id="168" value="&lt;font style=&quot;font-size: 24px;&quot;&gt;Armazena o dado baseado no ano&lt;br style=&quot;font-size: 24px;&quot;&gt;e a quantidade de postos N&amp;nbsp;&lt;/font&gt;" style="rounded=0;whiteSpace=wrap;html=1;strokeWidth=3;fontSize=24;" parent="1" vertex="1">
                    <mxGeometry x="980" y="640" width="210" height="130" as="geometry"/>
                </mxCell>
                <mxCell id="187" value="" style="edgeStyle=none;html=1;strokeWidth=3;fontSize=24;" parent="1" source="173" target="136" edge="1">
                    <mxGeometry relative="1" as="geometry"/>
                </mxCell>
                <mxCell id="173" value="&lt;font style=&quot;font-size: 24px;&quot;&gt;Armazena o dado baseado no ano&lt;br style=&quot;font-size: 24px;&quot;&gt;e a quantidade de eletropostos N&amp;nbsp;&lt;/font&gt;" style="rounded=0;whiteSpace=wrap;html=1;strokeWidth=3;fontSize=24;" parent="1" vertex="1">
                    <mxGeometry x="960" y="1220" width="250" height="130" as="geometry"/>
                </mxCell>
                <mxCell id="179" style="edgeStyle=none;html=1;exitX=0.5;exitY=0;exitDx=0;exitDy=0;strokeWidth=3;fontSize=24;" parent="1" source="176" edge="1">
                    <mxGeometry relative="1" as="geometry">
                        <mxPoint x="545" y="770" as="targetPoint"/>
                        <Array as="points">
                            <mxPoint x="269" y="910"/>
                            <mxPoint x="545" y="910"/>
                        </Array>
                    </mxGeometry>
                </mxCell>
                <mxCell id="176" value="&lt;font style=&quot;font-size: 24px;&quot;&gt;Seleciona o valor de potência instalada correspondente ao ano seguinte&lt;/font&gt;" style="rounded=0;whiteSpace=wrap;html=1;strokeWidth=3;fontSize=24;" parent="1" vertex="1">
                    <mxGeometry x="161.87" y="1030" width="213.75" height="150" as="geometry"/>
                </mxCell>
                <mxCell id="181" value="&lt;font style=&quot;font-size: 24px;&quot;&gt;SIM&lt;/font&gt;" style="text;strokeColor=none;align=center;fillColor=none;html=1;verticalAlign=middle;whiteSpace=wrap;rounded=0;fontStyle=1;fontSize=24;" parent="1" vertex="1">
                    <mxGeometry x="20" y="1430" width="60" height="30" as="geometry"/>
                </mxCell>
                <mxCell id="191" value="&lt;font style=&quot;font-size: 24px;&quot;&gt;NÃO&lt;/font&gt;" style="text;strokeColor=none;align=center;fillColor=none;html=1;verticalAlign=middle;whiteSpace=wrap;rounded=0;fontStyle=1;fontSize=24;" parent="1" vertex="1">
                    <mxGeometry x="760" y="870" width="60" height="30" as="geometry"/>
                </mxCell>
                <mxCell id="192" value="&lt;font style=&quot;font-size: 24px;&quot;&gt;SIM&lt;/font&gt;" style="text;strokeColor=none;align=center;fillColor=none;html=1;verticalAlign=middle;whiteSpace=wrap;rounded=0;fontStyle=1;fontSize=24;" parent="1" vertex="1">
                    <mxGeometry x="1100" y="983" width="60" height="30" as="geometry"/>
                </mxCell>
                <mxCell id="193" value="&lt;font style=&quot;font-size: 24px;&quot;&gt;SIM&lt;/font&gt;" style="text;strokeColor=none;align=center;fillColor=none;html=1;verticalAlign=middle;whiteSpace=wrap;rounded=0;fontStyle=1;fontSize=24;" parent="1" vertex="1">
                    <mxGeometry x="1090" y="1560" width="60" height="30" as="geometry"/>
                </mxCell>
            </root>
        </mxGraphModel>
    </diagram>
</mxfile>